<svg width="40" height="40" viewBox="0 0 40 40" fill="none" xmlns="http://www.w3.org/2000/svg">
<path d="M33.8462 0.00012207H6.15385C4.52229 0.00190366 2.95807 0.650826 1.80439 1.80451C0.650704 2.95819 0.00178159 4.52241 0 6.15397V33.8463C0.00178159 35.4778 0.650704 37.0421 1.80439 38.1957C2.95807 39.3494 4.52229 39.9983 6.15385 40.0001H33.8462C35.4777 39.9983 37.0419 39.3494 38.1956 38.1957C39.3493 37.0421 39.9982 35.4778 40 33.8463V6.15397C39.9982 4.52241 39.3493 2.95819 38.1956 1.80451C37.0419 0.650826 35.4777 0.00190366 33.8462 0.00012207ZM30.4087 13.2972L17.4856 28.6819C17.3438 28.8507 17.1674 28.9871 16.9684 29.0818C16.7693 29.1766 16.5522 29.2274 16.3317 29.2309H16.3058C16.0901 29.2308 15.8769 29.1854 15.68 29.0976C15.483 29.0098 15.3067 28.8816 15.1625 28.7213L9.62404 22.5674C9.48338 22.4182 9.37396 22.2424 9.30222 22.0504C9.23047 21.8583 9.19785 21.6538 9.20626 21.4489C9.21466 21.2441 9.26394 21.043 9.35119 20.8574C9.43843 20.6719 9.56189 20.5056 9.7143 20.3685C9.86671 20.2313 10.045 20.126 10.2387 20.0587C10.4324 19.9915 10.6376 19.9636 10.8422 19.9768C11.0468 19.9899 11.2467 20.0438 11.4302 20.1354C11.6137 20.2269 11.777 20.3542 11.9106 20.5097L16.2654 25.3482L28.0529 11.3184C28.3173 11.0127 28.6914 10.8233 29.0943 10.7912C29.4972 10.7591 29.8965 10.8869 30.206 11.1468C30.5155 11.4068 30.7102 11.7781 30.7482 12.1805C30.7861 12.5829 30.6641 12.984 30.4087 13.2972Z" fill="#149954"/>
</svg>
