<svg width="306" height="225" viewBox="0 0 306 225" fill="none" xmlns="http://www.w3.org/2000/svg">
<path d="M57.6526 223.09C89.0888 223.09 114.573 219.167 114.573 214.328C114.573 209.489 89.0888 205.567 57.6526 205.567C26.2165 205.567 0.732422 209.489 0.732422 214.328C0.732422 219.167 26.2165 223.09 57.6526 223.09Z" fill="#DFDFEB"/>
<path d="M150.688 224.842C207.479 224.842 253.517 220.92 253.517 216.081C253.517 211.242 207.479 207.32 150.688 207.32C93.8964 207.32 47.8582 211.242 47.8582 216.081C47.8582 220.92 93.8964 224.842 150.688 224.842Z" fill="#DFDFEB"/>
<path d="M122.714 0.0868221C112.095 0.376262 103.31 8.88581 102.699 19.4965C102.339 25.7355 104.756 31.4128 108.823 35.4184C109.424 36.0101 109.703 36.8538 109.563 37.6856L108.036 46.7285L117.433 41.25C117.968 40.9381 118.599 40.8234 119.206 40.9461C121.503 41.4098 123.937 41.495 126.446 41.115C135.729 39.708 142.972 32.0185 143.828 22.6632C144.968 10.1947 135.015 -0.248178 122.714 0.0868221Z" fill="#D3DDF7"/>
<path d="M122.349 27.8607L122.291 22.9268C123.01 22.7515 123.667 22.5232 124.26 22.2407C124.853 21.9588 125.374 21.6329 125.821 21.2625C126.269 20.8932 126.643 20.4794 126.945 20.0217C127.247 19.5645 127.474 19.073 127.631 18.5477C127.786 18.0224 127.864 17.4677 127.864 16.884C127.864 16.0473 127.659 15.2588 127.251 14.5191C126.842 13.78 126.258 13.1813 125.5 12.7235C124.741 12.2663 123.836 12.0374 122.786 12.0374C121.658 12.0374 120.613 12.3489 119.65 12.9717C118.687 13.5951 117.952 14.6553 117.447 16.1539L116.922 15.8034C117.369 14.383 118.118 13.2928 119.169 12.5338C120.219 11.7743 121.415 11.3948 122.758 11.3948C123.906 11.3948 124.912 11.6387 125.778 12.1248C126.643 12.6115 127.319 13.2686 127.806 14.0957C128.291 14.9227 128.535 15.8521 128.535 16.884C128.535 17.6628 128.404 18.3923 128.141 19.0735C127.879 19.7548 127.509 20.3776 127.033 20.942C126.556 21.5069 125.977 21.9979 125.296 22.416C124.615 22.8352 123.847 23.1509 122.991 23.3653L122.933 27.8612L122.349 27.8607ZM121.999 31.5393C121.999 31.2863 122.067 31.0772 122.203 30.9116C122.339 30.7465 122.524 30.6634 122.758 30.6634C123.03 30.6634 123.224 30.7417 123.341 30.8971C123.458 31.0531 123.516 31.267 123.516 31.5393C123.516 31.773 123.453 31.9772 123.326 32.1524C123.199 32.3277 123.01 32.4151 122.757 32.4151C122.504 32.4151 122.314 32.3368 122.188 32.1814C122.061 32.026 121.999 31.8121 121.999 31.5393Z" fill="black"/>
<path d="M63.0263 201.998L63.9413 208.898C63.9413 208.898 81.0954 216.209 79.5044 216.315C77.9133 216.421 53.2618 214.829 53.2618 214.829L54.7126 202.302L63.0263 201.998Z" fill="black"/>
<path d="M58.2478 89.355C58.2478 89.355 56.8806 102.519 55.8558 103.203C54.8305 103.887 53.4639 104.229 53.4639 104.229L55.6849 89.1846L58.2478 89.355Z" stroke="#424242" stroke-miterlimit="10"/>
<path d="M31.1594 80.3062C31.1594 80.3062 24.2063 96.0147 26.2249 104.767L64.7674 98.8844L63.9633 82.5654L31.1594 80.3062Z" fill="black"/>
<path d="M64.7675 98.8851C64.7675 98.8851 64.9855 136.574 65.2534 149.705C65.5212 162.836 67.8162 203.387 67.8162 203.387C67.8162 203.387 60.6189 207.358 53.1226 204.149C52.5232 203.892 46.0657 98.5334 46.0657 98.5334L64.7675 98.8851Z" fill="black"/>
<path d="M26.8635 100.102L10.5997 203.731C10.5997 203.731 17.7022 210.389 26.6739 204.329L43.2114 119.683L51.2423 114.288L52.4385 98.8474L26.8635 100.102Z" fill="black"/>
<path d="M22.5927 201.166L24.0735 207.119C24.0735 207.119 34.8954 220.141 33.3006 220.141C31.7058 220.141 13.9351 212.08 13.9351 212.08L16.2135 199.678L22.5927 201.166Z" fill="black"/>
<path d="M32.804 86.6648C32.804 86.6648 22.5547 129.78 14.9358 205.901" stroke="#424242" stroke-miterlimit="10"/>
<path d="M39.832 91.3022C39.832 91.3022 36.2433 100.279 30.1125 100.428" stroke="#424242" stroke-miterlimit="10"/>
<path d="M54.9906 204.77L49.7471 115.564L54.8696 110.189" stroke="#424242" stroke-miterlimit="10"/>
<path d="M54.9221 35.1738C57.5889 34.6277 59.5351 34.2358 59.5351 34.2358L76.168 43.3248C76.1964 43.3403 76.2248 43.3559 76.2531 43.3714C81.7035 46.3805 84.1126 51.4859 83.969 58.641L84.7769 69.0056L75.7635 61.6876L68.144 76.3885L63.3049 93.7436C37.4814 103.139 27.4507 86.2702 27.4507 86.2702L36.0066 67.739L39.4625 50.6246C41.1044 41.8422 46.175 36.9657 54.9221 35.1738Z" fill="#9EC68A"/>
<path d="M194.553 64.4511C194.553 64.4511 191.947 75.3576 177.2 88.6649C177.2 88.6649 175.793 86.6731 178.941 78.9976C182.09 71.3226 193.935 61.7298 194.553 64.4511Z" fill="#7E9E6E"/>
<path d="M194.553 64.4512C194.553 64.4512 181.531 72.5635 177.2 88.665C177.2 88.665 176.206 94.2185 177.811 99.1883" stroke="black" stroke-miterlimit="10" stroke-linecap="round"/>
<path d="M160.515 71.2139C160.515 71.2139 164.178 68.7896 158.592 61.79C153.286 55.1403 147.603 49.1189 135.922 46.2969C135.922 46.2969 138.462 62.5345 145.915 66.8444C153.368 71.1539 160.515 71.2139 160.515 71.2139Z" fill="#7E9E6E"/>
<path d="M131.089 81.1466C131.089 81.1466 143.242 84.6269 164.591 78.9881C164.591 78.9881 163.434 76.7428 154.14 75.4168C144.847 74.0907 128.771 79.194 131.089 81.1466Z" fill="#7E9E6E"/>
<path d="M131.089 81.1464C131.089 81.1464 146.378 74.2626 164.591 78.9879C164.591 78.9879 166.458 79.5845 168.224 82.2897" stroke="black" stroke-miterlimit="10" stroke-linecap="round"/>
<path d="M140.588 92.9738C140.588 92.9738 153.22 102.506 174.571 96.8673C174.571 96.8673 170.977 89.2486 161.684 87.9225C152.389 86.5965 138.271 91.0211 140.588 92.9738Z" fill="#7E9E6E"/>
<path d="M140.588 92.9739C140.588 92.9739 155.229 87.2494 174.571 96.8674C174.571 96.8674 176.842 98.0584 178.607 100.764" stroke="black" stroke-miterlimit="10" stroke-linecap="round"/>
<path d="M187.94 53.5421C187.94 53.5421 191.862 53.325 181.801 61.5076C172.3 69.2335 173.436 69.3717 173.436 69.3717C173.436 69.3717 177.635 57.1681 187.94 53.5421Z" fill="black"/>
<path d="M166.642 73.1585C166.642 73.1585 169.477 74.4663 175.029 69.988C180.581 65.5097 183.224 54.905 187.941 53.5425C187.941 53.5425 176.133 56.5393 166.642 73.1585Z" fill="#7E9E6E"/>
<path d="M183.346 111.248C178.195 98.9487 170.851 84.8803 160.516 71.2139C160.516 71.2139 158.003 67.4437 149.07 57.5154C140.137 47.587 135.923 46.2969 135.923 46.2969" stroke="black" stroke-miterlimit="10" stroke-linecap="round"/>
<path d="M186.538 54.0259C186.538 54.0259 175.223 58.1257 166.642 73.1579C164.563 76.7995 166.571 79.9158 168.223 82.2892" stroke="black" stroke-miterlimit="10" stroke-linecap="round"/>
<path d="M301.099 195.683C301.099 195.683 290.125 198.978 271.813 187.105C271.813 187.105 273.016 183.915 281.298 183.401C289.58 182.888 303.298 193.118 301.099 195.683Z" fill="#7E9E6E"/>
<path d="M300.688 194.876C300.688 194.876 288.633 185.385 272.027 186.791C272.027 186.791 266.469 187.744 262.345 190.946" stroke="black" stroke-miterlimit="10" stroke-linecap="round"/>
<path d="M277.212 171.21C277.212 171.21 280.737 173.831 285.415 166.194C289.859 158.939 293.584 151.543 292.262 139.593C292.262 139.593 277.865 147.508 276.351 155.986C274.836 164.465 277.212 171.21 277.212 171.21Z" fill="#7E9E6E"/>
<path d="M305.518 184.851C305.518 184.851 307.823 188.035 295.502 183.994C283.868 180.179 284.366 181.209 284.366 181.209C284.366 181.209 296.896 178.141 305.518 184.851Z" fill="black"/>
<path d="M277.508 177.54C277.508 177.54 277.942 180.633 284.71 182.883C291.478 185.132 301.822 181.619 305.518 184.851C305.518 184.851 296.612 176.536 277.508 177.54Z" fill="#7E9E6E"/>
<path d="M247.356 206.312C257.162 197.281 267.885 185.585 277.212 171.21C277.212 171.21 279.901 167.563 286.192 155.78C292.483 143.997 292.262 139.593 292.262 139.593" stroke="black" stroke-miterlimit="10" stroke-linecap="round"/>
<path d="M304.353 183.933C304.353 183.933 294.785 176.629 277.508 177.54C273.322 177.761 271.426 179.8 268.288 183.715" stroke="black" stroke-miterlimit="10" stroke-linecap="round"/>
<path d="M186.978 86.4043C190.336 86.4043 193.587 85.2251 196.166 83.0725L203.32 77.0993C205.895 74.95 208.953 73.7981 212.086 73.7981H247.592C250.814 73.7981 253.426 76.4116 253.426 79.6351V86.4038V208.245C253.426 213.808 248.919 218.318 243.359 218.318H66.3633C62.039 218.318 58.5333 214.81 58.5333 210.484V94.2385C58.5333 89.9119 62.039 86.4043 66.3633 86.4043H186.978Z" fill="#333969"/>
<path d="M58.5339 211.14C58.5339 211.14 70.5794 188.533 71.7842 185.937L104.704 118.834C105.532 117.05 107.318 115.91 109.283 115.91H231.618C236.065 115.91 242.498 113.577 245.912 110.726L250.849 106.605C253.424 104.456 256.482 103.304 259.615 103.304H293.404C297.001 103.304 299.444 106.959 298.07 110.285L257.21 209.161C254.92 214.703 249.517 218.318 243.523 218.318H60.7432C59.5517 218.318 58.4514 217.296 58.4519 216.104L58.5339 211.14Z" fill="#7584F1"/>
<path d="M108.293 122.291L59.9867 216.244" stroke="black" stroke-miterlimit="10" stroke-linejoin="round"/>
<path d="M128.198 138.481H169.81C170.944 138.481 172 137.91 172.609 136.967C174.015 134.79 172.428 131.941 169.81 131.941H128.198C127.064 131.941 126.008 132.513 125.399 133.455C123.992 135.633 125.58 138.481 128.198 138.481Z" stroke="black" stroke-miterlimit="10" stroke-linejoin="round"/>
<path d="M206.037 170.773L173.639 190.086" stroke="black" stroke-miterlimit="10" stroke-linecap="round" stroke-linejoin="round"/>
<path d="M179.548 169.842L199.906 190.202" stroke="black" stroke-miterlimit="10" stroke-linecap="round" stroke-linejoin="round"/>
<path d="M195.139 198.032C208.107 194.443 216.422 183.588 213.712 173.786C211.002 163.984 198.293 158.947 185.326 162.536C172.359 166.124 164.043 176.98 166.753 186.782C169.463 196.584 182.172 201.621 195.139 198.032Z" stroke="black" stroke-miterlimit="10" stroke-linecap="round" stroke-linejoin="round"/>
<path d="M66.8005 78.9902L72.8085 85.7406C72.8085 85.7406 67.1723 92.3945 61.4476 88.4533L60.5294 87.1353L66.8005 78.9902Z" fill="#9EC68A"/>
<path d="M52.8397 38.7126C52.8397 38.7126 61.0715 40.8706 54.5947 64.6802" stroke="black" stroke-miterlimit="10" stroke-linecap="round"/>
<path d="M67.3046 79.6983C62.8603 74.7023 57.4282 68.4246 54.2192 64.0964" stroke="black" stroke-miterlimit="10" stroke-linecap="round"/>
<path d="M61.4476 88.4533C57.1823 84.0779 51.4185 77.8501 48.9028 75.5421C44.9825 71.945 40.9137 66.1573 42.2401 58.7219L42.081 52.7605" stroke="black" stroke-miterlimit="10" stroke-linecap="round"/>
<path d="M87.0515 85.2582C81.7988 82.4184 79.379 78.9028 77.3534 76.2968C72.5213 70.0808 70.8091 69.3111 72.225 62.0762L72.3027 54.5046L82.7861 65.856C86.7895 71.1694 96.0188 80.6947 99.4286 84.4477C99.4286 84.4477 95.4257 89.7852 87.0515 85.2582Z" fill="#9EC68A"/>
<path d="M65.6717 83.3408C66.1549 83.2084 66.6558 83.1677 67.154 83.2202C68.9519 83.4105 73.7696 83.9165 74.3133 83.9235C74.983 83.932 75.5272 82.9319 76.964 86.5579C78.4008 90.1834 78.1431 90.5211 78.1346 90.9949C78.1265 91.4687 77.084 98.4308 75.9644 97.3851C74.8447 96.3394 74.9953 95.7305 74.9953 95.7305C74.9953 95.7305 74.3915 98.5579 74.0739 98.4491C73.7562 98.3397 72.5792 98.3365 72.7678 96.3399C72.7678 96.3399 72.126 98.2808 71.4644 97.7978C70.8028 97.3154 70.9512 95.2175 70.9512 95.2175C70.9512 95.2175 70.243 96.7923 69.434 95.7412C68.6256 94.6896 69.2278 92.2545 69.2278 92.2545L68.5501 90.445L67.0838 89.8109C67.0838 89.8109 62.1483 91.1026 61.2992 87.6749C60.6472 85.041 64.0576 83.7825 65.6717 83.3408Z" fill="#DB9C7F"/>
<path d="M75.5991 87.7854L76.5259 91.6821L74.9954 95.7305" stroke="black" stroke-miterlimit="10" stroke-linecap="round"/>
<path d="M73.22 87.6411L74.4205 91.6348L72.7673 96.3393" stroke="black" stroke-miterlimit="10" stroke-linecap="round"/>
<path d="M71.1328 88.0872L71.8319 91.9271L71.0321 94.8032" stroke="black" stroke-miterlimit="10" stroke-linecap="round"/>
<path d="M67.102 14.0532C65.3508 15.6934 65.3251 17.6878 65.3251 17.6878C65.3251 17.6878 64.7229 16.9439 63.9783 16.7048" stroke="black" stroke-miterlimit="10" stroke-linecap="round"/>
<path d="M92.1183 82.2255C93.7838 81.823 95.5399 82.0953 97.0645 82.8768C99.0708 83.9053 102.205 85.4983 102.613 85.6205C103.22 85.8017 103.616 85.4731 103.697 89.1613C103.728 90.6187 103.724 91.6248 103.594 92.0541C103.464 92.4829 100.52 96.8846 99.5529 96.265C99.5267 96.2478 99.5085 96.2339 99.4844 96.2178C99.239 96.5474 98.9106 96.9516 98.5881 97.2271C98.3465 97.4334 97.0019 97.4056 97.6897 95.6384C97.6897 95.6384 96.7576 97.6811 96.0328 97.4088C95.0883 97.0539 95.2415 96.1454 95.586 95.3768C95.1472 95.9696 94.604 96.4526 94.2178 95.9396C93.4597 94.933 95.1767 91.3531 95.1767 91.3531L95.377 89.1849L94.0667 88.0116C94.0667 88.0116 89.3829 88.1263 89.497 84.7887C89.549 83.2573 90.7897 82.5466 92.1183 82.2255Z" fill="#DB9C7F"/>
<path d="M102.397 87.8108L102.338 91.7654L99.4545 95.9628" stroke="black" stroke-miterlimit="10" stroke-linecap="round"/>
<path d="M100.35 87.8418L100.125 91.9181L97.6898 95.6379" stroke="black" stroke-miterlimit="10" stroke-linecap="round"/>
<path d="M98.2716 87.9485L97.9797 91.381L95.9016 94.8297" stroke="black" stroke-miterlimit="10" stroke-linecap="round"/>
<path d="M92.3454 87.0335C92.3454 87.0335 92.8158 90.5716 91.6741 91.3483C90.5331 92.125 88.6924 84.808 89.9583 84.7148C91.8134 84.5776 92.3454 87.0335 92.3454 87.0335Z" fill="#DB9C7F"/>
<path d="M93.9007 86.5222C93.9007 86.5222 92.7655 86.7045 92.4414 88.038" stroke="black" stroke-miterlimit="10" stroke-linecap="round"/>
<path d="M71.8716 69.3996L77.3894 62.2043C82.4337 55.5273 79.0721 48.4688 79.0721 48.4688" stroke="black" stroke-miterlimit="10" stroke-linecap="round"/>
<path d="M84.7774 69.0055C84.7774 69.0055 81.5267 64.4962 80.788 66.4922" stroke="black" stroke-miterlimit="10" stroke-linecap="round"/>
<path d="M86.0332 31.4783L85.0973 31.281" stroke="white" stroke-miterlimit="10"/>
<path d="M66.4678 30.6062L59.5352 34.236C59.5352 34.236 59.353 42.4679 67.1385 48.7246L70.6346 45.3258L74.158 48.8522C74.158 48.8522 75.4984 47.7989 75.8964 43.0194L75.268 37.2167L66.4678 30.6062Z" fill="white"/>
<path d="M75.2685 37.2167L66.4678 30.6062L59.5352 34.236" stroke="black" stroke-miterlimit="10" stroke-linecap="round" stroke-linejoin="round"/>
<path d="M64.4551 31.8544C64.4551 31.8544 66.5985 44.3936 69.772 45.2823C72.9451 46.1704 74.9245 39.9003 74.9245 39.9003L68.7799 22.7837L64.4551 31.8544Z" fill="#DB9C7F"/>
<path d="M76.1031 41.408L76.1412 42.9667C76.1701 42.9828 76.078 43.448 74.533 43.6254C67.7449 43.4228 67.2076 35.7805 66.6553 29.7007C66.6553 29.7007 76.7299 40.1945 76.1031 41.408Z" fill="black"/>
<path d="M85.6024 24.361C85.6024 24.361 87.3462 40.2545 78.0279 42.837C68.7097 45.4194 66.4774 30.2158 66.7988 24.9576C67.1203 19.6995 69.7442 17.1025 76.2751 16.8672C85.9367 16.5188 85.6024 24.361 85.6024 24.361Z" fill="#DB9C7F"/>
<path d="M71.6525 20.0533C71.6525 20.0533 71.4778 23.3937 69.2621 24.061L67.6689 28.9734C67.6689 28.9734 66.3339 26.7903 64.8671 26.0169C64.8671 26.0169 63.2471 19.5297 65.2866 16.952C67.326 14.3744 70.161 13.0676 77.0198 13.6385C82.2403 14.0726 85.2944 17.778 86.2919 19.6631C86.6155 20.2742 87.4003 21.9915 85.5655 23.6622C85.5655 23.6622 85.5901 22.3983 84.5187 20.9195C84.5187 20.9195 82.0191 26.0324 71.6525 20.0533Z" fill="black"/>
<path d="M62.7189 29.8156C63.2938 31.913 64.9427 33.2991 66.402 32.9121C67.8613 32.5251 68.5791 30.5113 68.0043 28.414C67.43 26.3166 65.7805 24.9305 64.3213 25.3175C62.8614 25.705 62.1441 27.7188 62.7189 29.8156Z" fill="#DB9C7F"/>
<path d="M76.154 30.5159C76.1272 31.0562 76.3838 31.5081 76.7272 31.5258C77.0706 31.5434 77.3701 31.1195 77.3963 30.5792C77.4231 30.0389 77.1665 29.587 76.8231 29.5694C76.4803 29.5522 76.1803 29.9762 76.154 30.5159Z" fill="black"/>
<path d="M83.3412 30.9603C83.2881 31.4663 83.4955 31.9037 83.804 31.9364C84.1126 31.9691 84.4062 31.5858 84.4592 31.0793C84.5122 30.5733 84.3049 30.136 83.9963 30.1033C83.6872 30.0706 83.3942 30.4543 83.3412 30.9603Z" fill="black"/>
<path d="M74.1023 26.2378C74.1023 26.2378 76.5703 26.7668 76.7348 24.425" stroke="black" stroke-miterlimit="10" stroke-linecap="round"/>
<path d="M82.4653 26.0459C82.4653 26.0459 83.0943 28.2226 84.9494 26.9625" stroke="black" stroke-miterlimit="10" stroke-linecap="round"/>
<path d="M75.7228 39.2234C75.7228 39.2234 74.909 35.9061 72.3837 37.8078L75.7228 39.2234Z" fill="black"/>
<path d="M64.1835 27.9898C64.1835 27.9898 65.8249 26.5769 66.7217 29.1604C66.7217 29.1604 65.7628 30.1788 66.3681 30.978C66.3681 30.978 65.4226 31.1924 64.9565 30.3584" stroke="black" stroke-miterlimit="10" stroke-linecap="round" stroke-linejoin="round"/>
<path d="M64.8944 28.9784C64.8944 28.9784 64.986 28.4043 65.623 27.7488" stroke="black" stroke-miterlimit="10" stroke-linecap="round" stroke-linejoin="round"/>
<path d="M81.9163 30.8783C81.9163 32.4134 82.8591 33.658 84.0227 33.658C85.1863 33.658 86.1291 32.4134 86.1291 30.8783C86.1291 29.3432 85.1863 28.0986 84.0227 28.0986C82.8591 28.0986 81.9163 29.3432 81.9163 30.8783Z" stroke="white" stroke-miterlimit="10"/>
<path d="M74.0326 30.4983C74.0326 32.1251 75.2331 33.4436 76.7138 33.4436C78.1946 33.4436 79.3951 32.1251 79.3951 30.4983C79.3951 28.8715 78.1946 27.553 76.7138 27.553C75.2331 27.5524 74.0326 28.8715 74.0326 30.4983Z" stroke="white" stroke-miterlimit="10"/>
<path d="M82.011 31.683C82.011 31.683 81.359 28.9146 79.244 31.4868" stroke="white" stroke-miterlimit="10"/>
<path d="M74.0889 29.3836L67.858 27.9792" stroke="white" stroke-miterlimit="10"/>
<path d="M82.2719 32.9077C82.5805 33.2995 82.6448 33.7664 82.4889 34.2713C82.3351 34.7698 81.8273 35.0732 81.313 35.0624C81.0746 35.0576 80.8458 34.9933 80.6203 34.9225C80.5217 34.892 80.3267 34.7864 80.2206 34.833C79.7069 35.0603 79.1085 34.6117 79.2799 34.2611" stroke="black" stroke-miterlimit="10" stroke-linecap="round"/>
</svg>
